# xmcd
#
# Track frame offsets: 
#        180
#        16569
#        34675
#        54219
#        67333
#        84937
#        102842
#        120253
#        137604
#        154415
#        172069
#        187222
#        202913
#
# Disc length: 2957 seconds
#
# Revision: 2
# Processed by: cddbd v1.5.2PL0 Copyright (c) Steve Scherf et al.
# Submitted via: ExactAudioCopy v0.95b4
#
DISCID=a50b8b0d
DTITLE=Archie Edwards - The Toronto Sessions
DYEAR=2002
DGENRE=Blues
TTITLE0=I Had A Little Girl
TTITLE1=One Thin Dime Blues
TTITLE2=I'm Down Today
TTITLE3=Sitting On Top Of The World
TTITLE4=That Won't Do
TTITLE5=Greyhound Bus Blues
TTITLE6=I Called My Bay Long Distance
TTITLE7=Take Me Back Baby
TTITLE8=Easy Rider
TTITLE9=How Long Blues
TTITLE10=Pittsburgh Blues
TTITLE11=Poor Me
TTITLE12=Meet Me In The Bottom
EXTD=
EXTT0=
EXTT1=
EXTT2=
EXTT3=
EXTT4=
EXTT5=
EXTT6=
EXTT7=
EXTT8=
EXTT9=
EXTT10=
EXTT11=
EXTT12=
PLAYORDER=
